<svg width="300" height="600" xmlns="http://www.w3.org/2000/svg">
  <rect width="300" height="600" rx="20" fill="#f8f9fa" stroke="#dee2e6" stroke-width="2"/>
  <rect x="20" y="50" width="260" height="40" rx="20" fill="#ff6b6b"/>
  <text x="150" y="75" font-family="Arial" font-size="16" fill="white" text-anchor="middle">Settings</text>
  <rect x="30" y="120" width="240" height="400" rx="10" fill="white" stroke="#e9ecef"/>
  <text x="150" y="140" font-family="Arial" font-size="12" font-weight="bold" text-anchor="middle">Preferences</text>
  <rect x="45" y="160" width="210" height="40" rx="8" fill="#f8f9fa" stroke="#dee2e6"/>
  <text x="60" y="175" font-family="Arial" font-size="12">Daily Reminder Time</text>
  <text x="60" y="190" font-family="Arial" font-size="10" fill="#6c757d">9:00 AM</text>
  <rect x="200" y="170" width="40" height="20" rx="10" fill="#28a745"/>
  <circle cx="230" cy="180" r="8" fill="white"/>
  <rect x="45" y="210" width="210" height="40" rx="8" fill="#f8f9fa" stroke="#dee2e6"/>
  <text x="60" y="225" font-family="Arial" font-size="12">Push Notifications</text>
  <text x="60" y="240" font-family="Arial" font-size="10" fill="#6c757d">Enabled</text>
  <rect x="200" y="220" width="40" height="20" rx="10" fill="#28a745"/>
  <circle cx="230" cy="230" r="8" fill="white"/>
  <rect x="45" y="260" width="210" height="40" rx="8" fill="#f8f9fa" stroke="#dee2e6"/>
  <text x="60" y="275" font-family="Arial" font-size="12">Privacy Mode</text>
  <text x="60" y="290" font-family="Arial" font-size="10" fill="#6c757d">Anonymous sharing</text>
  <rect x="200" y="270" width="40" height="20" rx="10" fill="#6c757d"/>
  <circle cx="210" cy="280" r="8" fill="white"/>
  <rect x="45" y="310" width="210" height="40" rx="8" fill="#f8f9fa" stroke="#dee2e6"/>
  <text x="60" y="325" font-family="Arial" font-size="12">Location Services</text>
  <text x="60" y="340" font-family="Arial" font-size="10" fill="#6c757d">Local suggestions</text>
  <rect x="200" y="320" width="40" height="20" rx="10" fill="#28a745"/>
  <circle cx="230" cy="330" r="8" fill="white"/>
  <rect x="45" y="360" width="210" height="40" rx="8" fill="#f8f9fa" stroke="#dee2e6"/>
  <text x="60" y="375" font-family="Arial" font-size="12">Dark Mode</text>
  <text x="60" y="390" font-family="Arial" font-size="10" fill="#6c757d">System setting</text>
  <rect x="200" y="370" width="40" height="20" rx="10" fill="#6c757d"/>
  <circle cx="210" cy="380" r="8" fill="white"/>
  <rect x="45" y="430" width="210" height="40" rx="20" fill="#dc3545"/>
  <text x="150" y="455" font-family="Arial" font-size="14" fill="white" text-anchor="middle">Reset All Data</text>
  <rect x="45" y="480" width="210" height="25" rx="12" fill="#e8f4fd"/>
  <text x="150" y="496" font-family="Arial" font-size="10" text-anchor="middle">💡 Tip: Export your data first!</text>
</svg>