<svg width="300" height="600" xmlns="http://www.w3.org/2000/svg">
  <rect width="300" height="600" rx="20" fill="#f8f9fa" stroke="#dee2e6" stroke-width="2"/>
  <rect x="20" y="50" width="260" height="40" rx="20" fill="#11998e"/>
  <text x="150" y="75" font-family="Arial" font-size="16" fill="white" text-anchor="middle">Calendar View</text>
  <rect x="30" y="120" width="240" height="400" rx="10" fill="white" stroke="#e9ecef"/>
  <text x="150" y="140" font-family="Arial" font-size="12" font-weight="bold" text-anchor="middle">February 2026</text>
  <rect x="45" y="155" width="30" height="20" fill="#f8f9fa" stroke="#dee2e6"/>
  <text x="60" y="168" font-family="Arial" font-size="9" text-anchor="middle">Mon</text>
  <rect x="80" y="155" width="30" height="20" fill="#f8f9fa" stroke="#dee2e6"/>
  <text x="95" y="168" font-family="Arial" font-size="9" text-anchor="middle">Tue</text>
  <rect x="115" y="155" width="30" height="20" fill="#f8f9fa" stroke="#dee2e6"/>
  <text x="130" y="168" font-family="Arial" font-size="9" text-anchor="middle">Wed</text>
  <rect x="150" y="155" width="30" height="20" fill="#f8f9fa" stroke="#dee2e6"/>
  <text x="165" y="168" font-family="Arial" font-size="9" text-anchor="middle">Thu</text>
  <rect x="185" y="155" width="30" height="20" fill="#f8f9fa" stroke="#dee2e6"/>
  <text x="200" y="168" font-family="Arial" font-size="9" text-anchor="middle">Fri</text>
  <rect x="220" y="155" width="30" height="20" fill="#f8f9fa" stroke="#dee2e6"/>
  <text x="235" y="168" font-family="Arial" font-size="9" text-anchor="middle">Sat</text>
  <rect x="45" y="185" width="30" height="30" fill="#e8f5e8" stroke="#c3e6cb"/>
  <text x="60" y="202" font-family="Arial" font-size="10" text-anchor="middle">17</text>
  <circle cx="68" cy="208" r="2" fill="#28a745"/>
  <rect x="80" y="185" width="30" height="30" fill="#fff3cd" stroke="#ffeaa7"/>
  <text x="95" y="202" font-family="Arial" font-size="10" text-anchor="middle">18</text>
  <circle cx="103" cy="208" r="2" fill="#ffc107"/>
  <rect x="115" y="185" width="30" height="30" fill="#d4edda" stroke="#c3e6cb"/>
  <text x="130" y="202" font-family="Arial" font-size="10" text-anchor="middle">19</text>
  <circle cx="138" cy="208" r="2" fill="#28a745"/>
  <rect x="150" y="185" width="30" height="30" fill="white" stroke="#28a745" stroke-width="2"/>
  <text x="165" y="202" font-family="Arial" font-size="10" font-weight="bold" text-anchor="middle">20</text>
  <text x="165" y="209" font-family="Arial" font-size="6" text-anchor="middle">TODAY</text>
  <rect x="185" y="185" width="30" height="30" fill="white" stroke="#dee2e6"/>
  <text x="200" y="202" font-family="Arial" font-size="10" text-anchor="middle">21</text>
  <rect x="220" y="185" width="30" height="30" fill="white" stroke="#dee2e6"/>
  <text x="235" y="202" font-family="Arial" font-size="10" text-anchor="middle">22</text>
  <text x="150" y="240" font-family="Arial" font-size="12" font-weight="bold" text-anchor="middle">Today's Schedule</text>
  <rect x="45" y="255" width="210" height="25" rx="12" fill="#e8f5e8" stroke="#c3e6cb"/>
  <text x="60" y="272" font-family="Arial" font-size="10">8:00 - Morning workout ✓</text>
  <rect x="45" y="285" width="210" height="25" rx="12" fill="#fff3cd" stroke="#ffeaa7"/>
  <text x="60" y="302" font-family="Arial" font-size="10">12:00 - Team meeting</text>
  <rect x="45" y="315" width="210" height="25" rx="12" fill="white" stroke="#dee2e6"/>
  <text x="60" y="332" font-family="Arial" font-size="10">18:00 - Read for 30 minutes</text>
  <rect x="45" y="345" width="210" height="25" rx="12" fill="white" stroke="#dee2e6"/>
  <text x="60" y="362" font-family="Arial" font-size="10">21:00 - Meditation</text>
  <rect x="45" y="390" width="210" height="30" rx="15" fill="#11998e"/>
  <text x="150" y="408" font-family="Arial" font-size="12" fill="white" text-anchor="middle">+ Add New Task</text>
  <text x="150" y="450" font-family="Arial" font-size="10" text-anchor="middle">Streak: 12 days 🔥</text>
</svg>