<svg width="300" height="600" xmlns="http://www.w3.org/2000/svg">
  <rect width="300" height="600" rx="20" fill="#f8f9fa" stroke="#dee2e6" stroke-width="2"/>
  <rect x="20" y="50" width="260" height="40" rx="20" fill="#11998e"/>
  <text x="150" y="75" font-family="Arial" font-size="16" fill="white" text-anchor="middle">Reports</text>
  <rect x="30" y="120" width="240" height="400" rx="10" fill="white" stroke="#e9ecef"/>
  <text x="150" y="140" font-family="Arial" font-size="12" font-weight="bold" text-anchor="middle">Weekly Report</text>
  <rect x="45" y="160" width="210" height="60" rx="8" fill="#e8f5e8" stroke="#c3e6cb"/>
  <text x="150" y="180" font-family="Arial" font-size="14" font-weight="bold" fill="#28a745" text-anchor="middle">Excellent Week!</text>
  <text x="150" y="200" font-family="Arial" font-size="12" text-anchor="middle">87% goal completion</text>
  <text x="150" y="215" font-family="Arial" font-size="10" text-anchor="middle">+12% from last week</text>
  <rect x="45" y="240" width="210" height="120" rx="8" fill="#fff" stroke="#e9ecef"/>
  <text x="150" y="260" font-family="Arial" font-size="12" font-weight="bold" text-anchor="middle">Top Categories</text>
  <rect x="60" y="275" width="140" height="15" rx="7" fill="#38ef7d"/>
  <text x="65" y="287" font-family="Arial" font-size="10">Health & Fitness: 94%</text>
  <rect x="60" y="300" width="120" height="15" rx="7" fill="#17a2b8"/>
  <text x="65" y="312" font-family="Arial" font-size="10">Work Tasks: 82%</text>
  <rect x="60" y="325" width="100" height="15" rx="7" fill="#ffc107"/>
  <text x="65" y="337" font-family="Arial" font-size="10">Personal: 76%</text>
  <rect x="45" y="380" width="210" height="80" rx="8" fill="#f0f8ff" stroke="#b8daff"/>
  <text x="150" y="400" font-family="Arial" font-size="12" font-weight="bold" text-anchor="middle">Next Week Suggestions</text>
  <text x="60" y="420" font-family="Arial" font-size="10">• Focus on sleep consistency</text>
  <text x="60" y="435" font-family="Arial" font-size="10">• Add meditation to routine</text>
  <text x="60" y="450" font-family="Arial" font-size="10">• Schedule social activities</text>
  <rect x="80" y="480" width="140" height="30" rx="15" fill="#11998e"/>
  <text x="150" y="500" font-family="Arial" font-size="12" fill="white" text-anchor="middle">Share Progress</text>
</svg>