<svg width="300" height="600" xmlns="http://www.w3.org/2000/svg">
  <rect width="300" height="600" rx="20" fill="#f8f9fa" stroke="#dee2e6" stroke-width="2"/>
  <rect x="20" y="50" width="260" height="40" rx="20" fill="#11998e"/>
  <text x="150" y="75" font-family="Arial" font-size="16" fill="white" text-anchor="middle">Goal Progress</text>
  <rect x="30" y="120" width="240" height="100" rx="10" fill="white" stroke="#e9ecef"/>
  <text x="150" y="140" font-family="Arial" font-size="12" font-weight="bold" text-anchor="middle">Monthly Goals</text>
  <text x="50" y="165" font-family="Arial" font-size="11">Run 30km this month</text>
  <rect x="50" y="175" width="180" height="8" rx="4" fill="#e9ecef"/>
  <rect x="50" y="175" width="144" height="8" rx="4" fill="#28a745"/>
  <text x="240" y="182" font-family="Arial" font-size="10">24/30</text>
  <text x="50" y="200" font-family="Arial" font-size="11">Read 4 books</text>
  <rect x="50" y="210" width="180" height="8" rx="4" fill="#e9ecef"/>
  <rect x="50" y="210" width="90" height="8" rx="4" fill="#ffc107"/>
  <text x="240" y="217" font-family="Arial" font-size="10">2/4</text>
  <rect x="30" y="240" width="240" height="120" rx="10" fill="white" stroke="#e9ecef"/>
  <text x="150" y="260" font-family="Arial" font-size="12" font-weight="bold" text-anchor="middle">Weekly Targets</text>
  <rect x="50" y="275" width="200" height="20" rx="10" fill="#d4edda" stroke="#c3e6cb"/>
  <text x="60" y="288" font-family="Arial" font-size="10">Exercise 4x ✓ Complete</text>
  <rect x="50" y="305" width="200" height="20" rx="10" fill="#fff3cd" stroke="#ffeaa7"/>
  <text x="60" y="318" font-family="Arial" font-size="10">No sugar 5 days ⚙ 3/5 days</text>
  <rect x="50" y="335" width="200" height="20" rx="10" fill="#f8d7da" stroke="#f5c6cb"/>
  <text x="60" y="348" font-family="Arial" font-size="10">Early bedtime ✗ 2/7 days</text>
  <rect x="30" y="380" width="240" height="80" rx="10" fill="white" stroke="#e9ecef"/>
  <text x="150" y="400" font-family="Arial" font-size="12" font-weight="bold" text-anchor="middle">Achievement Summary</text>
  <text x="150" y="420" font-family="Arial" font-size="24" font-weight="bold" fill="#28a745" text-anchor="middle">73%</text>
  <text x="150" y="440" font-family="Arial" font-size="12" text-anchor="middle">Overall Progress</text>
  <text x="150" y="455" font-family="Arial" font-size="10" text-anchor="middle">Great job this week!</text>
</svg>